<svg version="1.1" xmlns="http://www.w3.org/2000/svg" width="220px" height="220px" viewBox="0 0 220 220" preserveAspectRatio="xMinYMin meet" xmlns:xlink="http://www.w3.org/1999/xlink" xmlns:svgjs="http://svgjs.com/svgjs"><rect width="100%" height="100%" fill="#ffffff" cx="0" cy="0"/><path d="M7,7l5,0 0,5 -5,0 0,-5z M12,7l5,0 0,5 -5,0 0,-5z M17,7l5,0 0,5 -5,0 0,-5z M22,7l5,0 0,5 -5,0 0,-5z M27,7l5,0 0,5 -5,0 0,-5z M32,7l5,0 0,5 -5,0 0,-5z M37,7l5,0 0,5 -5,0 0,-5z M47,7l5,0 0,5 -5,0 0,-5z M52,7l5,0 0,5 -5,0 0,-5z M67,7l5,0 0,5 -5,0 0,-5z M72,7l5,0 0,5 -5,0 0,-5z M77,7l5,0 0,5 -5,0 0,-5z M87,7l5,0 0,5 -5,0 0,-5z M92,7l5,0 0,5 -5,0 0,-5z M97,7l5,0 0,5 -5,0 0,-5z M107,7l5,0 0,5 -5,0 0,-5z M112,7l5,0 0,5 -5,0 0,-5z M117,7l5,0 0,5 -5,0 0,-5z M127,7l5,0 0,5 -5,0 0,-5z M132,7l5,0 0,5 -5,0 0,-5z M147,7l5,0 0,5 -5,0 0,-5z M162,7l5,0 0,5 -5,0 0,-5z M167,7l5,0 0,5 -5,0 0,-5z M177,7l5,0 0,5 -5,0 0,-5z M182,7l5,0 0,5 -5,0 0,-5z M187,7l5,0 0,5 -5,0 0,-5z M192,7l5,0 0,5 -5,0 0,-5z M197,7l5,0 0,5 -5,0 0,-5z M202,7l5,0 0,5 -5,0 0,-5z M207,7l5,0 0,5 -5,0 0,-5z M7,12l5,0 0,5 -5,0 0,-5z M37,12l5,0 0,5 -5,0 0,-5z M57,12l5,0 0,5 -5,0 0,-5z M67,12l5,0 0,5 -5,0 0,-5z M72,12l5,0 0,5 -5,0 0,-5z M77,12l5,0 0,5 -5,0 0,-5z M82,12l5,0 0,5 -5,0 0,-5z M97,12l5,0 0,5 -5,0 0,-5z M102,12l5,0 0,5 -5,0 0,-5z M112,12l5,0 0,5 -5,0 0,-5z M127,12l5,0 0,5 -5,0 0,-5z M132,12l5,0 0,5 -5,0 0,-5z M142,12l5,0 0,5 -5,0 0,-5z M152,12l5,0 0,5 -5,0 0,-5z M157,12l5,0 0,5 -5,0 0,-5z M167,12l5,0 0,5 -5,0 0,-5z M177,12l5,0 0,5 -5,0 0,-5z M207,12l5,0 0,5 -5,0 0,-5z M7,17l5,0 0,5 -5,0 0,-5z M17,17l5,0 0,5 -5,0 0,-5z M22,17l5,0 0,5 -5,0 0,-5z M27,17l5,0 0,5 -5,0 0,-5z M37,17l5,0 0,5 -5,0 0,-5z M52,17l5,0 0,5 -5,0 0,-5z M62,17l5,0 0,5 -5,0 0,-5z M67,17l5,0 0,5 -5,0 0,-5z M72,17l5,0 0,5 -5,0 0,-5z M77,17l5,0 0,5 -5,0 0,-5z M82,17l5,0 0,5 -5,0 0,-5z M107,17l5,0 0,5 -5,0 0,-5z M137,17l5,0 0,5 -5,0 0,-5z M142,17l5,0 0,5 -5,0 0,-5z M147,17l5,0 0,5 -5,0 0,-5z M157,17l5,0 0,5 -5,0 0,-5z M162,17l5,0 0,5 -5,0 0,-5z M167,17l5,0 0,5 -5,0 0,-5z M177,17l5,0 0,5 -5,0 0,-5z M187,17l5,0 0,5 -5,0 0,-5z M192,17l5,0 0,5 -5,0 0,-5z M197,17l5,0 0,5 -5,0 0,-5z M207,17l5,0 0,5 -5,0 0,-5z M7,22l5,0 0,5 -5,0 0,-5z M17,22l5,0 0,5 -5,0 0,-5z M22,22l5,0 0,5 -5,0 0,-5z M27,22l5,0 0,5 -5,0 0,-5z M37,22l5,0 0,5 -5,0 0,-5z M52,22l5,0 0,5 -5,0 0,-5z M62,22l5,0 0,5 -5,0 0,-5z M72,22l5,0 0,5 -5,0 0,-5z M77,22l5,0 0,5 -5,0 0,-5z M87,22l5,0 0,5 -5,0 0,-5z M92,22l5,0 0,5 -5,0 0,-5z M102,22l5,0 0,5 -5,0 0,-5z M107,22l5,0 0,5 -5,0 0,-5z M112,22l5,0 0,5 -5,0 0,-5z M127,22l5,0 0,5 -5,0 0,-5z M132,22l5,0 0,5 -5,0 0,-5z M152,22l5,0 0,5 -5,0 0,-5z M167,22l5,0 0,5 -5,0 0,-5z M177,22l5,0 0,5 -5,0 0,-5z M187,22l5,0 0,5 -5,0 0,-5z M192,22l5,0 0,5 -5,0 0,-5z M197,22l5,0 0,5 -5,0 0,-5z M207,22l5,0 0,5 -5,0 0,-5z M7,27l5,0 0,5 -5,0 0,-5z M17,27l5,0 0,5 -5,0 0,-5z M22,27l5,0 0,5 -5,0 0,-5z M27,27l5,0 0,5 -5,0 0,-5z M37,27l5,0 0,5 -5,0 0,-5z M47,27l5,0 0,5 -5,0 0,-5z M72,27l5,0 0,5 -5,0 0,-5z M77,27l5,0 0,5 -5,0 0,-5z M82,27l5,0 0,5 -5,0 0,-5z M97,27l5,0 0,5 -5,0 0,-5z M102,27l5,0 0,5 -5,0 0,-5z M112,27l5,0 0,5 -5,0 0,-5z M117,27l5,0 0,5 -5,0 0,-5z M122,27l5,0 0,5 -5,0 0,-5z M132,27l5,0 0,5 -5,0 0,-5z M137,27l5,0 0,5 -5,0 0,-5z M147,27l5,0 0,5 -5,0 0,-5z M157,27l5,0 0,5 -5,0 0,-5z M162,27l5,0 0,5 -5,0 0,-5z M167,27l5,0 0,5 -5,0 0,-5z M177,27l5,0 0,5 -5,0 0,-5z M187,27l5,0 0,5 -5,0 0,-5z M192,27l5,0 0,5 -5,0 0,-5z M197,27l5,0 0,5 -5,0 0,-5z M207,27l5,0 0,5 -5,0 0,-5z M7,32l5,0 0,5 -5,0 0,-5z M37,32l5,0 0,5 -5,0 0,-5z M47,32l5,0 0,5 -5,0 0,-5z M52,32l5,0 0,5 -5,0 0,-5z M57,32l5,0 0,5 -5,0 0,-5z M62,32l5,0 0,5 -5,0 0,-5z M72,32l5,0 0,5 -5,0 0,-5z M77,32l5,0 0,5 -5,0 0,-5z M82,32l5,0 0,5 -5,0 0,-5z M87,32l5,0 0,5 -5,0 0,-5z M92,32l5,0 0,5 -5,0 0,-5z M97,32l5,0 0,5 -5,0 0,-5z M102,32l5,0 0,5 -5,0 0,-5z M117,32l5,0 0,5 -5,0 0,-5z M127,32l5,0 0,5 -5,0 0,-5z M132,32l5,0 0,5 -5,0 0,-5z M137,32l5,0 0,5 -5,0 0,-5z M142,32l5,0 0,5 -5,0 0,-5z M147,32l5,0 0,5 -5,0 0,-5z M167,32l5,0 0,5 -5,0 0,-5z M177,32l5,0 0,5 -5,0 0,-5z M207,32l5,0 0,5 -5,0 0,-5z M7,37l5,0 0,5 -5,0 0,-5z M12,37l5,0 0,5 -5,0 0,-5z M17,37l5,0 0,5 -5,0 0,-5z M22,37l5,0 0,5 -5,0 0,-5z M27,37l5,0 0,5 -5,0 0,-5z M32,37l5,0 0,5 -5,0 0,-5z M37,37l5,0 0,5 -5,0 0,-5z M47,37l5,0 0,5 -5,0 0,-5z M57,37l5,0 0,5 -5,0 0,-5z M67,37l5,0 0,5 -5,0 0,-5z M77,37l5,0 0,5 -5,0 0,-5z M87,37l5,0 0,5 -5,0 0,-5z M97,37l5,0 0,5 -5,0 0,-5z M107,37l5,0 0,5 -5,0 0,-5z M117,37l5,0 0,5 -5,0 0,-5z M127,37l5,0 0,5 -5,0 0,-5z M137,37l5,0 0,5 -5,0 0,-5z M147,37l5,0 0,5 -5,0 0,-5z M157,37l5,0 0,5 -5,0 0,-5z M167,37l5,0 0,5 -5,0 0,-5z M177,37l5,0 0,5 -5,0 0,-5z M182,37l5,0 0,5 -5,0 0,-5z M187,37l5,0 0,5 -5,0 0,-5z M192,37l5,0 0,5 -5,0 0,-5z M197,37l5,0 0,5 -5,0 0,-5z M202,37l5,0 0,5 -5,0 0,-5z M207,37l5,0 0,5 -5,0 0,-5z M52,42l5,0 0,5 -5,0 0,-5z M67,42l5,0 0,5 -5,0 0,-5z M77,42l5,0 0,5 -5,0 0,-5z M82,42l5,0 0,5 -5,0 0,-5z M87,42l5,0 0,5 -5,0 0,-5z M92,42l5,0 0,5 -5,0 0,-5z M97,42l5,0 0,5 -5,0 0,-5z M112,42l5,0 0,5 -5,0 0,-5z M117,42l5,0 0,5 -5,0 0,-5z M122,42l5,0 0,5 -5,0 0,-5z M127,42l5,0 0,5 -5,0 0,-5z M137,42l5,0 0,5 -5,0 0,-5z M142,42l5,0 0,5 -5,0 0,-5z M167,42l5,0 0,5 -5,0 0,-5z M12,47l5,0 0,5 -5,0 0,-5z M17,47l5,0 0,5 -5,0 0,-5z M22,47l5,0 0,5 -5,0 0,-5z M27,47l5,0 0,5 -5,0 0,-5z M32,47l5,0 0,5 -5,0 0,-5z M37,47l5,0 0,5 -5,0 0,-5z M42,47l5,0 0,5 -5,0 0,-5z M52,47l5,0 0,5 -5,0 0,-5z M72,47l5,0 0,5 -5,0 0,-5z M87,47l5,0 0,5 -5,0 0,-5z M92,47l5,0 0,5 -5,0 0,-5z M112,47l5,0 0,5 -5,0 0,-5z M117,47l5,0 0,5 -5,0 0,-5z M122,47l5,0 0,5 -5,0 0,-5z M132,47l5,0 0,5 -5,0 0,-5z M137,47l5,0 0,5 -5,0 0,-5z M152,47l5,0 0,5 -5,0 0,-5z M157,47l5,0 0,5 -5,0 0,-5z M162,47l5,0 0,5 -5,0 0,-5z M182,47l5,0 0,5 -5,0 0,-5z M187,47l5,0 0,5 -5,0 0,-5z M207,47l5,0 0,5 -5,0 0,-5z M7,52l5,0 0,5 -5,0 0,-5z M12,52l5,0 0,5 -5,0 0,-5z M42,52l5,0 0,5 -5,0 0,-5z M57,52l5,0 0,5 -5,0 0,-5z M72,52l5,0 0,5 -5,0 0,-5z M82,52l5,0 0,5 -5,0 0,-5z M92,52l5,0 0,5 -5,0 0,-5z M117,52l5,0 0,5 -5,0 0,-5z M132,52l5,0 0,5 -5,0 0,-5z M137,52l5,0 0,5 -5,0 0,-5z M147,52l5,0 0,5 -5,0 0,-5z M157,52l5,0 0,5 -5,0 0,-5z M162,52l5,0 0,5 -5,0 0,-5z M167,52l5,0 0,5 -5,0 0,-5z M182,52l5,0 0,5 -5,0 0,-5z M187,52l5,0 0,5 -5,0 0,-5z M197,52l5,0 0,5 -5,0 0,-5z M202,52l5,0 0,5 -5,0 0,-5z M207,52l5,0 0,5 -5,0 0,-5z M12,57l5,0 0,5 -5,0 0,-5z M27,57l5,0 0,5 -5,0 0,-5z M32,57l5,0 0,5 -5,0 0,-5z M37,57l5,0 0,5 -5,0 0,-5z M42,57l5,0 0,5 -5,0 0,-5z M57,57l5,0 0,5 -5,0 0,-5z M62,57l5,0 0,5 -5,0 0,-5z M77,57l5,0 0,5 -5,0 0,-5z M92,57l5,0 0,5 -5,0 0,-5z M107,57l5,0 0,5 -5,0 0,-5z M122,57l5,0 0,5 -5,0 0,-5z M127,57l5,0 0,5 -5,0 0,-5z M132,57l5,0 0,5 -5,0 0,-5z M137,57l5,0 0,5 -5,0 0,-5z M142,57l5,0 0,5 -5,0 0,-5z M157,57l5,0 0,5 -5,0 0,-5z M167,57l5,0 0,5 -5,0 0,-5z M172,57l5,0 0,5 -5,0 0,-5z M177,57l5,0 0,5 -5,0 0,-5z M182,57l5,0 0,5 -5,0 0,-5z M187,57l5,0 0,5 -5,0 0,-5z M7,62l5,0 0,5 -5,0 0,-5z M12,62l5,0 0,5 -5,0 0,-5z M17,62l5,0 0,5 -5,0 0,-5z M27,62l5,0 0,5 -5,0 0,-5z M32,62l5,0 0,5 -5,0 0,-5z M42,62l5,0 0,5 -5,0 0,-5z M52,62l5,0 0,5 -5,0 0,-5z M57,62l5,0 0,5 -5,0 0,-5z M62,62l5,0 0,5 -5,0 0,-5z M67,62l5,0 0,5 -5,0 0,-5z M72,62l5,0 0,5 -5,0 0,-5z M77,62l5,0 0,5 -5,0 0,-5z M82,62l5,0 0,5 -5,0 0,-5z M102,62l5,0 0,5 -5,0 0,-5z M112,62l5,0 0,5 -5,0 0,-5z M127,62l5,0 0,5 -5,0 0,-5z M142,62l5,0 0,5 -5,0 0,-5z M147,62l5,0 0,5 -5,0 0,-5z M157,62l5,0 0,5 -5,0 0,-5z M162,62l5,0 0,5 -5,0 0,-5z M167,62l5,0 0,5 -5,0 0,-5z M177,62l5,0 0,5 -5,0 0,-5z M182,62l5,0 0,5 -5,0 0,-5z M192,62l5,0 0,5 -5,0 0,-5z M202,62l5,0 0,5 -5,0 0,-5z M17,67l5,0 0,5 -5,0 0,-5z M32,67l5,0 0,5 -5,0 0,-5z M37,67l5,0 0,5 -5,0 0,-5z M42,67l5,0 0,5 -5,0 0,-5z M72,67l5,0 0,5 -5,0 0,-5z M77,67l5,0 0,5 -5,0 0,-5z M92,67l5,0 0,5 -5,0 0,-5z M107,67l5,0 0,5 -5,0 0,-5z M122,67l5,0 0,5 -5,0 0,-5z M132,67l5,0 0,5 -5,0 0,-5z M137,67l5,0 0,5 -5,0 0,-5z M152,67l5,0 0,5 -5,0 0,-5z M162,67l5,0 0,5 -5,0 0,-5z M167,67l5,0 0,5 -5,0 0,-5z M192,67l5,0 0,5 -5,0 0,-5z M197,67l5,0 0,5 -5,0 0,-5z M207,67l5,0 0,5 -5,0 0,-5z M12,72l5,0 0,5 -5,0 0,-5z M22,72l5,0 0,5 -5,0 0,-5z M42,72l5,0 0,5 -5,0 0,-5z M52,72l5,0 0,5 -5,0 0,-5z M57,72l5,0 0,5 -5,0 0,-5z M62,72l5,0 0,5 -5,0 0,-5z M67,72l5,0 0,5 -5,0 0,-5z M72,72l5,0 0,5 -5,0 0,-5z M77,72l5,0 0,5 -5,0 0,-5z M87,72l5,0 0,5 -5,0 0,-5z M92,72l5,0 0,5 -5,0 0,-5z M97,72l5,0 0,5 -5,0 0,-5z M102,72l5,0 0,5 -5,0 0,-5z M107,72l5,0 0,5 -5,0 0,-5z M117,72l5,0 0,5 -5,0 0,-5z M127,72l5,0 0,5 -5,0 0,-5z M142,72l5,0 0,5 -5,0 0,-5z M147,72l5,0 0,5 -5,0 0,-5z M152,72l5,0 0,5 -5,0 0,-5z M162,72l5,0 0,5 -5,0 0,-5z M172,72l5,0 0,5 -5,0 0,-5z M177,72l5,0 0,5 -5,0 0,-5z M182,72l5,0 0,5 -5,0 0,-5z M187,72l5,0 0,5 -5,0 0,-5z M192,72l5,0 0,5 -5,0 0,-5z M197,72l5,0 0,5 -5,0 0,-5z M202,72l5,0 0,5 -5,0 0,-5z M207,72l5,0 0,5 -5,0 0,-5z M7,77l5,0 0,5 -5,0 0,-5z M22,77l5,0 0,5 -5,0 0,-5z M32,77l5,0 0,5 -5,0 0,-5z M37,77l5,0 0,5 -5,0 0,-5z M42,77l5,0 0,5 -5,0 0,-5z M67,77l5,0 0,5 -5,0 0,-5z M72,77l5,0 0,5 -5,0 0,-5z M77,77l5,0 0,5 -5,0 0,-5z M82,77l5,0 0,5 -5,0 0,-5z M107,77l5,0 0,5 -5,0 0,-5z M112,77l5,0 0,5 -5,0 0,-5z M117,77l5,0 0,5 -5,0 0,-5z M132,77l5,0 0,5 -5,0 0,-5z M142,77l5,0 0,5 -5,0 0,-5z M157,77l5,0 0,5 -5,0 0,-5z M172,77l5,0 0,5 -5,0 0,-5z M187,77l5,0 0,5 -5,0 0,-5z M192,77l5,0 0,5 -5,0 0,-5z M12,82l5,0 0,5 -5,0 0,-5z M17,82l5,0 0,5 -5,0 0,-5z M27,82l5,0 0,5 -5,0 0,-5z M32,82l5,0 0,5 -5,0 0,-5z M47,82l5,0 0,5 -5,0 0,-5z M72,82l5,0 0,5 -5,0 0,-5z M77,82l5,0 0,5 -5,0 0,-5z M97,82l5,0 0,5 -5,0 0,-5z M107,82l5,0 0,5 -5,0 0,-5z M112,82l5,0 0,5 -5,0 0,-5z M117,82l5,0 0,5 -5,0 0,-5z M127,82l5,0 0,5 -5,0 0,-5z M137,82l5,0 0,5 -5,0 0,-5z M167,82l5,0 0,5 -5,0 0,-5z M177,82l5,0 0,5 -5,0 0,-5z M187,82l5,0 0,5 -5,0 0,-5z M202,82l5,0 0,5 -5,0 0,-5z M7,87l5,0 0,5 -5,0 0,-5z M12,87l5,0 0,5 -5,0 0,-5z M27,87l5,0 0,5 -5,0 0,-5z M37,87l5,0 0,5 -5,0 0,-5z M42,87l5,0 0,5 -5,0 0,-5z M47,87l5,0 0,5 -5,0 0,-5z M67,87l5,0 0,5 -5,0 0,-5z M72,87l5,0 0,5 -5,0 0,-5z M77,87l5,0 0,5 -5,0 0,-5z M82,87l5,0 0,5 -5,0 0,-5z M92,87l5,0 0,5 -5,0 0,-5z M102,87l5,0 0,5 -5,0 0,-5z M112,87l5,0 0,5 -5,0 0,-5z M117,87l5,0 0,5 -5,0 0,-5z M137,87l5,0 0,5 -5,0 0,-5z M152,87l5,0 0,5 -5,0 0,-5z M162,87l5,0 0,5 -5,0 0,-5z M172,87l5,0 0,5 -5,0 0,-5z M182,87l5,0 0,5 -5,0 0,-5z M197,87l5,0 0,5 -5,0 0,-5z M22,92l5,0 0,5 -5,0 0,-5z M27,92l5,0 0,5 -5,0 0,-5z M32,92l5,0 0,5 -5,0 0,-5z M42,92l5,0 0,5 -5,0 0,-5z M47,92l5,0 0,5 -5,0 0,-5z M52,92l5,0 0,5 -5,0 0,-5z M57,92l5,0 0,5 -5,0 0,-5z M62,92l5,0 0,5 -5,0 0,-5z M67,92l5,0 0,5 -5,0 0,-5z M77,92l5,0 0,5 -5,0 0,-5z M87,92l5,0 0,5 -5,0 0,-5z M92,92l5,0 0,5 -5,0 0,-5z M97,92l5,0 0,5 -5,0 0,-5z M112,92l5,0 0,5 -5,0 0,-5z M117,92l5,0 0,5 -5,0 0,-5z M122,92l5,0 0,5 -5,0 0,-5z M137,92l5,0 0,5 -5,0 0,-5z M142,92l5,0 0,5 -5,0 0,-5z M147,92l5,0 0,5 -5,0 0,-5z M152,92l5,0 0,5 -5,0 0,-5z M167,92l5,0 0,5 -5,0 0,-5z M177,92l5,0 0,5 -5,0 0,-5z M182,92l5,0 0,5 -5,0 0,-5z M187,92l5,0 0,5 -5,0 0,-5z M192,92l5,0 0,5 -5,0 0,-5z M202,92l5,0 0,5 -5,0 0,-5z M207,92l5,0 0,5 -5,0 0,-5z M22,97l5,0 0,5 -5,0 0,-5z M32,97l5,0 0,5 -5,0 0,-5z M37,97l5,0 0,5 -5,0 0,-5z M42,97l5,0 0,5 -5,0 0,-5z M52,97l5,0 0,5 -5,0 0,-5z M57,97l5,0 0,5 -5,0 0,-5z M67,97l5,0 0,5 -5,0 0,-5z M107,97l5,0 0,5 -5,0 0,-5z M112,97l5,0 0,5 -5,0 0,-5z M117,97l5,0 0,5 -5,0 0,-5z M142,97l5,0 0,5 -5,0 0,-5z M157,97l5,0 0,5 -5,0 0,-5z M172,97l5,0 0,5 -5,0 0,-5z M187,97l5,0 0,5 -5,0 0,-5z M192,97l5,0 0,5 -5,0 0,-5z M17,102l5,0 0,5 -5,0 0,-5z M22,102l5,0 0,5 -5,0 0,-5z M42,102l5,0 0,5 -5,0 0,-5z M57,102l5,0 0,5 -5,0 0,-5z M62,102l5,0 0,5 -5,0 0,-5z M67,102l5,0 0,5 -5,0 0,-5z M87,102l5,0 0,5 -5,0 0,-5z M92,102l5,0 0,5 -5,0 0,-5z M97,102l5,0 0,5 -5,0 0,-5z M112,102l5,0 0,5 -5,0 0,-5z M127,102l5,0 0,5 -5,0 0,-5z M137,102l5,0 0,5 -5,0 0,-5z M157,102l5,0 0,5 -5,0 0,-5z M162,102l5,0 0,5 -5,0 0,-5z M167,102l5,0 0,5 -5,0 0,-5z M187,102l5,0 0,5 -5,0 0,-5z M207,102l5,0 0,5 -5,0 0,-5z M7,107l5,0 0,5 -5,0 0,-5z M12,107l5,0 0,5 -5,0 0,-5z M17,107l5,0 0,5 -5,0 0,-5z M32,107l5,0 0,5 -5,0 0,-5z M37,107l5,0 0,5 -5,0 0,-5z M52,107l5,0 0,5 -5,0 0,-5z M62,107l5,0 0,5 -5,0 0,-5z M77,107l5,0 0,5 -5,0 0,-5z M82,107l5,0 0,5 -5,0 0,-5z M87,107l5,0 0,5 -5,0 0,-5z M92,107l5,0 0,5 -5,0 0,-5z M102,107l5,0 0,5 -5,0 0,-5z M117,107l5,0 0,5 -5,0 0,-5z M122,107l5,0 0,5 -5,0 0,-5z M127,107l5,0 0,5 -5,0 0,-5z M132,107l5,0 0,5 -5,0 0,-5z M167,107l5,0 0,5 -5,0 0,-5z M187,107l5,0 0,5 -5,0 0,-5z M192,107l5,0 0,5 -5,0 0,-5z M197,107l5,0 0,5 -5,0 0,-5z M207,107l5,0 0,5 -5,0 0,-5z M12,112l5,0 0,5 -5,0 0,-5z M27,112l5,0 0,5 -5,0 0,-5z M42,112l5,0 0,5 -5,0 0,-5z M52,112l5,0 0,5 -5,0 0,-5z M67,112l5,0 0,5 -5,0 0,-5z M77,112l5,0 0,5 -5,0 0,-5z M82,112l5,0 0,5 -5,0 0,-5z M87,112l5,0 0,5 -5,0 0,-5z M102,112l5,0 0,5 -5,0 0,-5z M112,112l5,0 0,5 -5,0 0,-5z M117,112l5,0 0,5 -5,0 0,-5z M122,112l5,0 0,5 -5,0 0,-5z M137,112l5,0 0,5 -5,0 0,-5z M147,112l5,0 0,5 -5,0 0,-5z M152,112l5,0 0,5 -5,0 0,-5z M162,112l5,0 0,5 -5,0 0,-5z M172,112l5,0 0,5 -5,0 0,-5z M177,112l5,0 0,5 -5,0 0,-5z M182,112l5,0 0,5 -5,0 0,-5z M187,112l5,0 0,5 -5,0 0,-5z M197,112l5,0 0,5 -5,0 0,-5z M202,112l5,0 0,5 -5,0 0,-5z M207,112l5,0 0,5 -5,0 0,-5z M17,117l5,0 0,5 -5,0 0,-5z M22,117l5,0 0,5 -5,0 0,-5z M37,117l5,0 0,5 -5,0 0,-5z M52,117l5,0 0,5 -5,0 0,-5z M62,117l5,0 0,5 -5,0 0,-5z M82,117l5,0 0,5 -5,0 0,-5z M87,117l5,0 0,5 -5,0 0,-5z M92,117l5,0 0,5 -5,0 0,-5z M102,117l5,0 0,5 -5,0 0,-5z M112,117l5,0 0,5 -5,0 0,-5z M137,117l5,0 0,5 -5,0 0,-5z M142,117l5,0 0,5 -5,0 0,-5z M152,117l5,0 0,5 -5,0 0,-5z M167,117l5,0 0,5 -5,0 0,-5z M192,117l5,0 0,5 -5,0 0,-5z M7,122l5,0 0,5 -5,0 0,-5z M22,122l5,0 0,5 -5,0 0,-5z M32,122l5,0 0,5 -5,0 0,-5z M42,122l5,0 0,5 -5,0 0,-5z M52,122l5,0 0,5 -5,0 0,-5z M62,122l5,0 0,5 -5,0 0,-5z M82,122l5,0 0,5 -5,0 0,-5z M102,122l5,0 0,5 -5,0 0,-5z M107,122l5,0 0,5 -5,0 0,-5z M112,122l5,0 0,5 -5,0 0,-5z M117,122l5,0 0,5 -5,0 0,-5z M122,122l5,0 0,5 -5,0 0,-5z M127,122l5,0 0,5 -5,0 0,-5z M137,122l5,0 0,5 -5,0 0,-5z M142,122l5,0 0,5 -5,0 0,-5z M147,122l5,0 0,5 -5,0 0,-5z M157,122l5,0 0,5 -5,0 0,-5z M167,122l5,0 0,5 -5,0 0,-5z M172,122l5,0 0,5 -5,0 0,-5z M187,122l5,0 0,5 -5,0 0,-5z M202,122l5,0 0,5 -5,0 0,-5z M12,127l5,0 0,5 -5,0 0,-5z M27,127l5,0 0,5 -5,0 0,-5z M37,127l5,0 0,5 -5,0 0,-5z M57,127l5,0 0,5 -5,0 0,-5z M67,127l5,0 0,5 -5,0 0,-5z M72,127l5,0 0,5 -5,0 0,-5z M77,127l5,0 0,5 -5,0 0,-5z M87,127l5,0 0,5 -5,0 0,-5z M92,127l5,0 0,5 -5,0 0,-5z M102,127l5,0 0,5 -5,0 0,-5z M107,127l5,0 0,5 -5,0 0,-5z M112,127l5,0 0,5 -5,0 0,-5z M127,127l5,0 0,5 -5,0 0,-5z M132,127l5,0 0,5 -5,0 0,-5z M137,127l5,0 0,5 -5,0 0,-5z M152,127l5,0 0,5 -5,0 0,-5z M187,127l5,0 0,5 -5,0 0,-5z M192,127l5,0 0,5 -5,0 0,-5z M197,127l5,0 0,5 -5,0 0,-5z M202,127l5,0 0,5 -5,0 0,-5z M207,127l5,0 0,5 -5,0 0,-5z M12,132l5,0 0,5 -5,0 0,-5z M27,132l5,0 0,5 -5,0 0,-5z M42,132l5,0 0,5 -5,0 0,-5z M62,132l5,0 0,5 -5,0 0,-5z M72,132l5,0 0,5 -5,0 0,-5z M87,132l5,0 0,5 -5,0 0,-5z M122,132l5,0 0,5 -5,0 0,-5z M132,132l5,0 0,5 -5,0 0,-5z M147,132l5,0 0,5 -5,0 0,-5z M162,132l5,0 0,5 -5,0 0,-5z M182,132l5,0 0,5 -5,0 0,-5z M187,132l5,0 0,5 -5,0 0,-5z M192,132l5,0 0,5 -5,0 0,-5z M202,132l5,0 0,5 -5,0 0,-5z M7,137l5,0 0,5 -5,0 0,-5z M12,137l5,0 0,5 -5,0 0,-5z M37,137l5,0 0,5 -5,0 0,-5z M42,137l5,0 0,5 -5,0 0,-5z M62,137l5,0 0,5 -5,0 0,-5z M67,137l5,0 0,5 -5,0 0,-5z M72,137l5,0 0,5 -5,0 0,-5z M77,137l5,0 0,5 -5,0 0,-5z M97,137l5,0 0,5 -5,0 0,-5z M102,137l5,0 0,5 -5,0 0,-5z M107,137l5,0 0,5 -5,0 0,-5z M117,137l5,0 0,5 -5,0 0,-5z M127,137l5,0 0,5 -5,0 0,-5z M132,137l5,0 0,5 -5,0 0,-5z M142,137l5,0 0,5 -5,0 0,-5z M147,137l5,0 0,5 -5,0 0,-5z M167,137l5,0 0,5 -5,0 0,-5z M177,137l5,0 0,5 -5,0 0,-5z M182,137l5,0 0,5 -5,0 0,-5z M187,137l5,0 0,5 -5,0 0,-5z M17,142l5,0 0,5 -5,0 0,-5z M22,142l5,0 0,5 -5,0 0,-5z M27,142l5,0 0,5 -5,0 0,-5z M52,142l5,0 0,5 -5,0 0,-5z M57,142l5,0 0,5 -5,0 0,-5z M67,142l5,0 0,5 -5,0 0,-5z M82,142l5,0 0,5 -5,0 0,-5z M87,142l5,0 0,5 -5,0 0,-5z M92,142l5,0 0,5 -5,0 0,-5z M97,142l5,0 0,5 -5,0 0,-5z M107,142l5,0 0,5 -5,0 0,-5z M117,142l5,0 0,5 -5,0 0,-5z M122,142l5,0 0,5 -5,0 0,-5z M137,142l5,0 0,5 -5,0 0,-5z M162,142l5,0 0,5 -5,0 0,-5z M167,142l5,0 0,5 -5,0 0,-5z M172,142l5,0 0,5 -5,0 0,-5z M177,142l5,0 0,5 -5,0 0,-5z M182,142l5,0 0,5 -5,0 0,-5z M187,142l5,0 0,5 -5,0 0,-5z M192,142l5,0 0,5 -5,0 0,-5z M17,147l5,0 0,5 -5,0 0,-5z M22,147l5,0 0,5 -5,0 0,-5z M37,147l5,0 0,5 -5,0 0,-5z M52,147l5,0 0,5 -5,0 0,-5z M67,147l5,0 0,5 -5,0 0,-5z M72,147l5,0 0,5 -5,0 0,-5z M92,147l5,0 0,5 -5,0 0,-5z M102,147l5,0 0,5 -5,0 0,-5z M112,147l5,0 0,5 -5,0 0,-5z M117,147l5,0 0,5 -5,0 0,-5z M122,147l5,0 0,5 -5,0 0,-5z M127,147l5,0 0,5 -5,0 0,-5z M132,147l5,0 0,5 -5,0 0,-5z M142,147l5,0 0,5 -5,0 0,-5z M147,147l5,0 0,5 -5,0 0,-5z M152,147l5,0 0,5 -5,0 0,-5z M162,147l5,0 0,5 -5,0 0,-5z M182,147l5,0 0,5 -5,0 0,-5z M192,147l5,0 0,5 -5,0 0,-5z M197,147l5,0 0,5 -5,0 0,-5z M202,147l5,0 0,5 -5,0 0,-5z M7,152l5,0 0,5 -5,0 0,-5z M12,152l5,0 0,5 -5,0 0,-5z M27,152l5,0 0,5 -5,0 0,-5z M42,152l5,0 0,5 -5,0 0,-5z M47,152l5,0 0,5 -5,0 0,-5z M52,152l5,0 0,5 -5,0 0,-5z M67,152l5,0 0,5 -5,0 0,-5z M72,152l5,0 0,5 -5,0 0,-5z M77,152l5,0 0,5 -5,0 0,-5z M82,152l5,0 0,5 -5,0 0,-5z M87,152l5,0 0,5 -5,0 0,-5z M97,152l5,0 0,5 -5,0 0,-5z M112,152l5,0 0,5 -5,0 0,-5z M147,152l5,0 0,5 -5,0 0,-5z M162,152l5,0 0,5 -5,0 0,-5z M167,152l5,0 0,5 -5,0 0,-5z M172,152l5,0 0,5 -5,0 0,-5z M177,152l5,0 0,5 -5,0 0,-5z M182,152l5,0 0,5 -5,0 0,-5z M187,152l5,0 0,5 -5,0 0,-5z M192,152l5,0 0,5 -5,0 0,-5z M197,152l5,0 0,5 -5,0 0,-5z M202,152l5,0 0,5 -5,0 0,-5z M207,152l5,0 0,5 -5,0 0,-5z M7,157l5,0 0,5 -5,0 0,-5z M22,157l5,0 0,5 -5,0 0,-5z M27,157l5,0 0,5 -5,0 0,-5z M32,157l5,0 0,5 -5,0 0,-5z M37,157l5,0 0,5 -5,0 0,-5z M57,157l5,0 0,5 -5,0 0,-5z M67,157l5,0 0,5 -5,0 0,-5z M77,157l5,0 0,5 -5,0 0,-5z M82,157l5,0 0,5 -5,0 0,-5z M92,157l5,0 0,5 -5,0 0,-5z M97,157l5,0 0,5 -5,0 0,-5z M107,157l5,0 0,5 -5,0 0,-5z M112,157l5,0 0,5 -5,0 0,-5z M117,157l5,0 0,5 -5,0 0,-5z M122,157l5,0 0,5 -5,0 0,-5z M127,157l5,0 0,5 -5,0 0,-5z M132,157l5,0 0,5 -5,0 0,-5z M142,157l5,0 0,5 -5,0 0,-5z M152,157l5,0 0,5 -5,0 0,-5z M167,157l5,0 0,5 -5,0 0,-5z M172,157l5,0 0,5 -5,0 0,-5z M177,157l5,0 0,5 -5,0 0,-5z M182,157l5,0 0,5 -5,0 0,-5z M192,157l5,0 0,5 -5,0 0,-5z M197,157l5,0 0,5 -5,0 0,-5z M7,162l5,0 0,5 -5,0 0,-5z M17,162l5,0 0,5 -5,0 0,-5z M42,162l5,0 0,5 -5,0 0,-5z M52,162l5,0 0,5 -5,0 0,-5z M67,162l5,0 0,5 -5,0 0,-5z M77,162l5,0 0,5 -5,0 0,-5z M92,162l5,0 0,5 -5,0 0,-5z M97,162l5,0 0,5 -5,0 0,-5z M107,162l5,0 0,5 -5,0 0,-5z M122,162l5,0 0,5 -5,0 0,-5z M142,162l5,0 0,5 -5,0 0,-5z M147,162l5,0 0,5 -5,0 0,-5z M157,162l5,0 0,5 -5,0 0,-5z M162,162l5,0 0,5 -5,0 0,-5z M167,162l5,0 0,5 -5,0 0,-5z M172,162l5,0 0,5 -5,0 0,-5z M177,162l5,0 0,5 -5,0 0,-5z M187,162l5,0 0,5 -5,0 0,-5z M207,162l5,0 0,5 -5,0 0,-5z M7,167l5,0 0,5 -5,0 0,-5z M37,167l5,0 0,5 -5,0 0,-5z M47,167l5,0 0,5 -5,0 0,-5z M52,167l5,0 0,5 -5,0 0,-5z M57,167l5,0 0,5 -5,0 0,-5z M67,167l5,0 0,5 -5,0 0,-5z M77,167l5,0 0,5 -5,0 0,-5z M82,167l5,0 0,5 -5,0 0,-5z M92,167l5,0 0,5 -5,0 0,-5z M107,167l5,0 0,5 -5,0 0,-5z M122,167l5,0 0,5 -5,0 0,-5z M132,167l5,0 0,5 -5,0 0,-5z M137,167l5,0 0,5 -5,0 0,-5z M142,167l5,0 0,5 -5,0 0,-5z M147,167l5,0 0,5 -5,0 0,-5z M152,167l5,0 0,5 -5,0 0,-5z M167,167l5,0 0,5 -5,0 0,-5z M172,167l5,0 0,5 -5,0 0,-5z M177,167l5,0 0,5 -5,0 0,-5z M182,167l5,0 0,5 -5,0 0,-5z M187,167l5,0 0,5 -5,0 0,-5z M197,167l5,0 0,5 -5,0 0,-5z M207,167l5,0 0,5 -5,0 0,-5z M47,172l5,0 0,5 -5,0 0,-5z M62,172l5,0 0,5 -5,0 0,-5z M67,172l5,0 0,5 -5,0 0,-5z M72,172l5,0 0,5 -5,0 0,-5z M82,172l5,0 0,5 -5,0 0,-5z M87,172l5,0 0,5 -5,0 0,-5z M92,172l5,0 0,5 -5,0 0,-5z M107,172l5,0 0,5 -5,0 0,-5z M117,172l5,0 0,5 -5,0 0,-5z M122,172l5,0 0,5 -5,0 0,-5z M147,172l5,0 0,5 -5,0 0,-5z M162,172l5,0 0,5 -5,0 0,-5z M167,172l5,0 0,5 -5,0 0,-5z M187,172l5,0 0,5 -5,0 0,-5z M192,172l5,0 0,5 -5,0 0,-5z M197,172l5,0 0,5 -5,0 0,-5z M202,172l5,0 0,5 -5,0 0,-5z M207,172l5,0 0,5 -5,0 0,-5z M7,177l5,0 0,5 -5,0 0,-5z M12,177l5,0 0,5 -5,0 0,-5z M17,177l5,0 0,5 -5,0 0,-5z M22,177l5,0 0,5 -5,0 0,-5z M27,177l5,0 0,5 -5,0 0,-5z M32,177l5,0 0,5 -5,0 0,-5z M37,177l5,0 0,5 -5,0 0,-5z M47,177l5,0 0,5 -5,0 0,-5z M62,177l5,0 0,5 -5,0 0,-5z M67,177l5,0 0,5 -5,0 0,-5z M87,177l5,0 0,5 -5,0 0,-5z M92,177l5,0 0,5 -5,0 0,-5z M97,177l5,0 0,5 -5,0 0,-5z M107,177l5,0 0,5 -5,0 0,-5z M112,177l5,0 0,5 -5,0 0,-5z M117,177l5,0 0,5 -5,0 0,-5z M132,177l5,0 0,5 -5,0 0,-5z M137,177l5,0 0,5 -5,0 0,-5z M142,177l5,0 0,5 -5,0 0,-5z M147,177l5,0 0,5 -5,0 0,-5z M167,177l5,0 0,5 -5,0 0,-5z M177,177l5,0 0,5 -5,0 0,-5z M187,177l5,0 0,5 -5,0 0,-5z M192,177l5,0 0,5 -5,0 0,-5z M7,182l5,0 0,5 -5,0 0,-5z M37,182l5,0 0,5 -5,0 0,-5z M47,182l5,0 0,5 -5,0 0,-5z M52,182l5,0 0,5 -5,0 0,-5z M57,182l5,0 0,5 -5,0 0,-5z M62,182l5,0 0,5 -5,0 0,-5z M77,182l5,0 0,5 -5,0 0,-5z M82,182l5,0 0,5 -5,0 0,-5z M87,182l5,0 0,5 -5,0 0,-5z M92,182l5,0 0,5 -5,0 0,-5z M97,182l5,0 0,5 -5,0 0,-5z M107,182l5,0 0,5 -5,0 0,-5z M112,182l5,0 0,5 -5,0 0,-5z M127,182l5,0 0,5 -5,0 0,-5z M137,182l5,0 0,5 -5,0 0,-5z M142,182l5,0 0,5 -5,0 0,-5z M157,182l5,0 0,5 -5,0 0,-5z M162,182l5,0 0,5 -5,0 0,-5z M167,182l5,0 0,5 -5,0 0,-5z M187,182l5,0 0,5 -5,0 0,-5z M192,182l5,0 0,5 -5,0 0,-5z M207,182l5,0 0,5 -5,0 0,-5z M7,187l5,0 0,5 -5,0 0,-5z M17,187l5,0 0,5 -5,0 0,-5z M22,187l5,0 0,5 -5,0 0,-5z M27,187l5,0 0,5 -5,0 0,-5z M37,187l5,0 0,5 -5,0 0,-5z M47,187l5,0 0,5 -5,0 0,-5z M52,187l5,0 0,5 -5,0 0,-5z M67,187l5,0 0,5 -5,0 0,-5z M77,187l5,0 0,5 -5,0 0,-5z M82,187l5,0 0,5 -5,0 0,-5z M102,187l5,0 0,5 -5,0 0,-5z M112,187l5,0 0,5 -5,0 0,-5z M117,187l5,0 0,5 -5,0 0,-5z M122,187l5,0 0,5 -5,0 0,-5z M127,187l5,0 0,5 -5,0 0,-5z M142,187l5,0 0,5 -5,0 0,-5z M167,187l5,0 0,5 -5,0 0,-5z M172,187l5,0 0,5 -5,0 0,-5z M177,187l5,0 0,5 -5,0 0,-5z M182,187l5,0 0,5 -5,0 0,-5z M187,187l5,0 0,5 -5,0 0,-5z M202,187l5,0 0,5 -5,0 0,-5z M7,192l5,0 0,5 -5,0 0,-5z M17,192l5,0 0,5 -5,0 0,-5z M22,192l5,0 0,5 -5,0 0,-5z M27,192l5,0 0,5 -5,0 0,-5z M37,192l5,0 0,5 -5,0 0,-5z M47,192l5,0 0,5 -5,0 0,-5z M62,192l5,0 0,5 -5,0 0,-5z M87,192l5,0 0,5 -5,0 0,-5z M92,192l5,0 0,5 -5,0 0,-5z M112,192l5,0 0,5 -5,0 0,-5z M117,192l5,0 0,5 -5,0 0,-5z M122,192l5,0 0,5 -5,0 0,-5z M147,192l5,0 0,5 -5,0 0,-5z M167,192l5,0 0,5 -5,0 0,-5z M172,192l5,0 0,5 -5,0 0,-5z M182,192l5,0 0,5 -5,0 0,-5z M197,192l5,0 0,5 -5,0 0,-5z M202,192l5,0 0,5 -5,0 0,-5z M7,197l5,0 0,5 -5,0 0,-5z M17,197l5,0 0,5 -5,0 0,-5z M22,197l5,0 0,5 -5,0 0,-5z M27,197l5,0 0,5 -5,0 0,-5z M37,197l5,0 0,5 -5,0 0,-5z M47,197l5,0 0,5 -5,0 0,-5z M57,197l5,0 0,5 -5,0 0,-5z M72,197l5,0 0,5 -5,0 0,-5z M82,197l5,0 0,5 -5,0 0,-5z M87,197l5,0 0,5 -5,0 0,-5z M92,197l5,0 0,5 -5,0 0,-5z M97,197l5,0 0,5 -5,0 0,-5z M102,197l5,0 0,5 -5,0 0,-5z M112,197l5,0 0,5 -5,0 0,-5z M117,197l5,0 0,5 -5,0 0,-5z M127,197l5,0 0,5 -5,0 0,-5z M137,197l5,0 0,5 -5,0 0,-5z M142,197l5,0 0,5 -5,0 0,-5z M157,197l5,0 0,5 -5,0 0,-5z M167,197l5,0 0,5 -5,0 0,-5z M172,197l5,0 0,5 -5,0 0,-5z M177,197l5,0 0,5 -5,0 0,-5z M182,197l5,0 0,5 -5,0 0,-5z M187,197l5,0 0,5 -5,0 0,-5z M192,197l5,0 0,5 -5,0 0,-5z M7,202l5,0 0,5 -5,0 0,-5z M37,202l5,0 0,5 -5,0 0,-5z M47,202l5,0 0,5 -5,0 0,-5z M52,202l5,0 0,5 -5,0 0,-5z M67,202l5,0 0,5 -5,0 0,-5z M72,202l5,0 0,5 -5,0 0,-5z M87,202l5,0 0,5 -5,0 0,-5z M92,202l5,0 0,5 -5,0 0,-5z M97,202l5,0 0,5 -5,0 0,-5z M102,202l5,0 0,5 -5,0 0,-5z M107,202l5,0 0,5 -5,0 0,-5z M112,202l5,0 0,5 -5,0 0,-5z M122,202l5,0 0,5 -5,0 0,-5z M142,202l5,0 0,5 -5,0 0,-5z M157,202l5,0 0,5 -5,0 0,-5z M167,202l5,0 0,5 -5,0 0,-5z M187,202l5,0 0,5 -5,0 0,-5z M192,202l5,0 0,5 -5,0 0,-5z M202,202l5,0 0,5 -5,0 0,-5z M7,207l5,0 0,5 -5,0 0,-5z M12,207l5,0 0,5 -5,0 0,-5z M17,207l5,0 0,5 -5,0 0,-5z M22,207l5,0 0,5 -5,0 0,-5z M27,207l5,0 0,5 -5,0 0,-5z M32,207l5,0 0,5 -5,0 0,-5z M37,207l5,0 0,5 -5,0 0,-5z M52,207l5,0 0,5 -5,0 0,-5z M57,207l5,0 0,5 -5,0 0,-5z M62,207l5,0 0,5 -5,0 0,-5z M67,207l5,0 0,5 -5,0 0,-5z M72,207l5,0 0,5 -5,0 0,-5z M77,207l5,0 0,5 -5,0 0,-5z M82,207l5,0 0,5 -5,0 0,-5z M97,207l5,0 0,5 -5,0 0,-5z M102,207l5,0 0,5 -5,0 0,-5z M107,207l5,0 0,5 -5,0 0,-5z M112,207l5,0 0,5 -5,0 0,-5z M117,207l5,0 0,5 -5,0 0,-5z M127,207l5,0 0,5 -5,0 0,-5z M132,207l5,0 0,5 -5,0 0,-5z M142,207l5,0 0,5 -5,0 0,-5z M152,207l5,0 0,5 -5,0 0,-5z M162,207l5,0 0,5 -5,0 0,-5z M177,207l5,0 0,5 -5,0 0,-5z M182,207l5,0 0,5 -5,0 0,-5z M187,207l5,0 0,5 -5,0 0,-5z " stroke="transparent" fill="#0c0c0d"/></svg>